<?xml version="1.0" standalone="no"?>
<!DOCTYPE svg PUBLIC "-//W3C//DTD SVG 20010904//EN"
 "http://www.w3.org/TR/2001/REC-SVG-20010904/DTD/svg10.dtd">
<svg version="1.0" xmlns="http://www.w3.org/2000/svg"
 width="60.000000pt" height="20.000000pt" viewBox="0 0 60.000000 20.000000"
 preserveAspectRatio="xMidYMid meet">

<g transform="translate(0.000000,20.000000) scale(0.100000,-0.100000)"
fill="#000000" stroke="none">
<path d="M342 178 c2 -15 9 -22 21 -22 14 2 17 -7 17 -50 0 -33 -3 -46 -9 -37
-14 22 -31 3 -31 -35 0 -37 19 -48 21 -11 1 21 1 21 8 -3 6 -20 9 -22 16 -10
5 8 13 35 17 60 6 43 7 42 4 -12 -2 -47 0 -56 11 -47 7 6 13 24 13 40 0 16 5
29 11 29 8 0 10 -14 6 -40 -4 -35 -3 -39 9 -29 8 6 14 24 14 39 0 16 4 30 9
32 18 6 0 58 -20 58 -11 0 -19 -4 -19 -10 0 -5 5 -10 11 -10 5 0 7 -5 4 -10
-9 -15 -25 -12 -25 4 0 8 -7 17 -16 20 -19 7 -10 21 14 22 10 1 28 2 41 3 l25
1 -24 22 c-22 20 -23 21 -36 3 -12 -16 -14 -16 -20 -2 -5 13 -9 14 -26 4 -16
-9 -22 -9 -25 1 -8 21 -25 13 -21 -10z"/>
<path d="M110 180 c0 -5 5 -10 10 -10 6 0 10 5 10 10 0 6 -4 10 -10 10 -5 0
-10 -4 -10 -10z"/>
<path d="M170 180 c0 -6 29 -10 66 -10 41 0 63 4 59 10 -3 6 -33 10 -66 10
-33 0 -59 -4 -59 -10z"/>
<path d="M110 85 c0 -43 4 -75 10 -75 6 0 10 32 10 75 0 43 -4 75 -10 75 -6 0
-10 -32 -10 -75z"/>
<path d="M160 130 c0 -5 7 -10 16 -10 10 0 14 -6 11 -17 -3 -10 -8 -35 -12
-55 l-6 -38 54 0 c29 0 58 5 65 12 19 19 14 56 -8 68 -31 16 -58 3 -70 -33
l-10 -32 5 34 c3 18 5 40 5 47 0 10 13 14 45 14 25 0 45 5 45 10 0 6 -30 10
-70 10 -40 0 -70 -4 -70 -10z m130 -70 c0 -4 -11 -15 -25 -24 l-25 -16 0 35
c0 33 1 34 25 23 14 -6 25 -14 25 -18z"/>
<path d="M340 126 c0 -15 18 -31 26 -23 7 7 -7 37 -17 37 -5 0 -9 -6 -9 -14z"/>
</g>
</svg>
